<svg xmlns="http://www.w3.org/2000/svg" viewBox="0 0 168 168" width="168" height="168"><circle cx="84" cy="84" r="84" fill="#1db954"/><path fill="#000" d="M122.5 119.6c-1.6 2.6-5 3.4-7.6 1.8-20.8-12.7-46.9-15.6-77.7-8.6-3 .7-5.9-1.2-6.6-4.1-.7-3 1.2-5.9 4.1-6.6 33.6-7.7 62.6-4.3 86 10 2.5 1.6 3.3 5 1.8 7.5zm10.3-22.9c-2 3.2-6.2 4.2-9.4 2.2-23.8-14.6-60-18.9-88.1-10.4-3.6 1.1-7.4-1-8.5-4.6-1.1-3.6 1-7.4 4.6-8.5 32.2-9.7 72.1-4.9 99.3 11.9 3.2 2 4.2 6.2 2.1 9.4zm.9-23.8c-28.5-16.9-75.5-18.5-102.7-10.2-4.3 1.3-8.9-1.1-10.2-5.4-1.3-4.3 1.1-8.9 5.4-10.2 31.3-9.5 83.2-7.7 116 11.7 3.9 2.3 5.2 7.3 2.9 11.2-2.3 3.9-7.3 5.2-11.4 2.9z"/></svg>
